<svg xmlns="http://www.w3.org/2000/svg" width="135" height="135" viewBox="0 0 135 135">
  <g id="swap" transform="translate(-572 -1763)">
    <circle id="Ellipse_1" data-name="Ellipse 1" cx="67.5" cy="67.5" r="67.5" transform="translate(572 1763)" fill="#0c59db"/>
    <g id="nintendo-switch" transform="translate(650.3 1699.536)">
      <g id="Group_13" data-name="Group 13" transform="translate(-59 87.763)">
        <path id="Path_2" data-name="Path 2" d="M74.846,15.969a3.308,3.308,0,1,0-4.678,4.678L76.1,26.578H11.308a3.308,3.308,0,0,0,0,6.616H76.1l-5.931,5.931A3.308,3.308,0,1,0,74.846,43.8L86.424,32.225a3.307,3.307,0,0,0,0-4.678Z" transform="translate(0 0)" fill="#fff"/>
        <path id="Path_3" data-name="Path 3" d="M84.085,42.578H19.294l5.931-5.931a3.308,3.308,0,0,0-4.678-4.678L8.969,43.547a3.307,3.307,0,0,0,0,4.678L20.547,59.8a3.308,3.308,0,0,0,4.678-4.678l-5.931-5.931H84.085a3.308,3.308,0,0,0,0-6.616Z" transform="translate(0 10.464)" fill="#fff"/>
      </g>
    </g>
  </g>
</svg>
